HIERARCHY
ROOT Hips
{
	OFFSET -0.001795 -0.223333 0.028219
	CHANNELS 6 Xposition Yposition Zposition Zrotation Yrotation Xrotation 
	JOINT LeftUpLeg
	{
		OFFSET 0.069520 -0.091406 -0.006815
		CHANNELS 3 Zrotation Yrotation Xrotation
		JOINT LeftLeg
		{
			OFFSET 0.034277 -0.375199 -0.004496
			CHANNELS 3 Zrotation Yrotation Xrotation
			JOINT LeftFoot
			{
				OFFSET -0.013596 -0.397961 -0.043693
				CHANNELS 3 Zrotation Yrotation Xrotation
				JOINT LeftToe
				{
					OFFSET 0.026358 -0.055791 0.119288
					CHANNELS 3 Zrotation Yrotation Xrotation
					End Site
					{
						OFFSET 0.000000 0.000000 0.000000
					}
				}
			}
		}
	}
	JOINT RightUpLeg
	{
		OFFSET -0.067670 -0.090522 -0.004320
		CHANNELS 3 Zrotation Yrotation Xrotation
		JOINT RightLeg
		{
			OFFSET -0.038290 -0.382569 -0.008850
			CHANNELS 3 Zrotation Yrotation Xrotation
			JOINT RightFoot
			{
				OFFSET 0.015774 -0.398415 -0.042312
				CHANNELS 3 Zrotation Yrotation Xrotation
				JOINT RightToe
				{
					OFFSET -0.025372 -0.048144 0.123348
					CHANNELS 3 Zrotation Yrotation Xrotation
					End Site
					{
						OFFSET 0.000000 0.000000 0.000000
					}
				}
			}
		}
	}
	JOINT Spine
	{
		OFFSET -0.002533 0.108963 -0.026696
		CHANNELS 3 Zrotation Yrotation Xrotation
		JOINT Spine1
		{
			OFFSET 0.005487 0.135180 0.001092
			CHANNELS 3 Zrotation Yrotation Xrotation
			JOINT Spine2
			{
				OFFSET 0.001457 0.052922 0.025425
				CHANNELS 3 Zrotation Yrotation Xrotation
				JOINT Neck
				{
					OFFSET -0.002778 0.213870 -0.042857
					CHANNELS 3 Zrotation Yrotation Xrotation
					JOINT Head
					{
						OFFSET 0.005152 0.064970 0.051349
						CHANNELS 3 Zrotation Yrotation Xrotation
						End Site
						{
							OFFSET 0.000000 0.000000 0.000000
						}
					}
				}
				JOINT LeftShoulder
				{
					OFFSET 0.078845 0.121749 -0.034090
					CHANNELS 3 Zrotation Yrotation Xrotation
					JOINT LeftArm
					{
						OFFSET 0.090977 0.030469 -0.008868
						CHANNELS 3 Zrotation Yrotation Xrotation
						JOINT LeftForeArm
						{
							OFFSET 0.259612 -0.012772 -0.027456
							CHANNELS 3 Zrotation Yrotation Xrotation
							JOINT LeftHand
							{
								OFFSET 0.249234 0.008986 -0.001171
								CHANNELS 3 Zrotation Yrotation Xrotation
								End Site
								{
									OFFSET 0.000000 0.000000 0.000000
								}
							}
						}
					}
				}
				JOINT RightShoulder
				{
					OFFSET -0.081759 0.118833 -0.038615
					CHANNELS 3 Zrotation Yrotation Xrotation
					JOINT RightArm
					{
						OFFSET -0.096012 0.032551 -0.009143
						CHANNELS 3 Zrotation Yrotation Xrotation
						JOINT RightForeArm
						{
							OFFSET -0.253742 -0.013329 -0.021401
							CHANNELS 3 Zrotation Yrotation Xrotation
							JOINT RightHand
							{
								OFFSET -0.255298 0.007772 -0.005559
								CHANNELS 3 Zrotation Yrotation Xrotation
								End Site
								{
									OFFSET 0.000000 0.000000 0.000000
								}
							}
						}
					}
				}
			}
		}
	}
}
MOTION
Frames: 7
Frame Time: 0.050000
-0.001926 0.885705 -0.078834 -2.111438 7.377180 8.493833 10.785291 -1.109353 -34.220094 -9.276143 1.807947 35.849168 5.163978 11.612474 1.911628 0.000000 0.000000 0.000000 -3.122028 1.929071 -38.001682 -0.383794 0.645822 41.267101 -6.474993 -16.221406 4.678603 0.000000 0.000000 0.000000 5.424762 -1.988953 17.222078 -2.720050 1.303094 -3.829892 -5.187132 10.086111 8.080745 10.479126 -7.782935 -2.507723 0.000000 0.000000 0.000000 3.199005 3.195131 -0.282463 -84.405588 -5.910846 -12.399447 -109.318408 -82.545723 102.435721 0.000000 0.000000 0.000000 -2.046587 -13.479845 -5.045239 80.221743 -12.471008 -11.287418 87.734131 78.110558 85.360308 0.000000 0.000000 0.000000 
-0.008021 0.882611 -0.078477 -2.001773 10.422513 8.651961 11.178383 -1.517721 -36.246019 -9.578151 1.497268 37.718709 4.167796 9.906603 2.411779 0.000000 0.000000 0.000000 -3.337566 1.414867 -38.803616 0.080766 -0.176807 43.049050 -7.492987 -18.191467 5.256006 0.000000 0.000000 0.000000 5.288314 -2.153162 17.980002 -2.839740 1.367831 -3.763933 -5.583507 10.920907 8.404238 10.301801 -7.933593 -1.526439 0.000000 0.000000 0.000000 4.006809 4.107401 -0.243889 -84.555915 -4.910217 -14.432408 -124.858515 -77.498973 113.556655 0.000000 0.000000 0.000000 -2.095214 -14.430751 -5.535467 80.974237 -13.692090 -11.132836 105.375748 78.174627 104.551028 0.000000 0.000000 0.000000 
-0.013255 0.878715 -0.078534 -1.833748 13.377034 8.817975 11.374519 -2.017629 -38.055847 -9.812213 1.133098 39.228012 3.339165 8.380975 2.440331 0.000000 0.000000 0.000000 -3.622507 0.829338 -39.900374 0.387417 -1.011507 45.230355 -8.443508 -19.920788 6.103990 0.000000 0.000000 0.000000 4.754925 -2.341360 19.446880 -3.061108 1.482816 -4.162631 -5.520004 11.289129 8.810885 9.911320 -7.539623 -1.603405 0.000000 0.000000 0.000000 4.335156 5.614993 -0.510449 -84.568743 -4.238588 -15.846936 -132.715465 -71.746580 116.975519 0.000000 0.000000 0.000000 -1.693180 -15.105075 -5.908104 80.368562 -13.965093 -10.512956 119.725591 77.872982 120.846545 0.000000 0.000000 0.000000 
-0.017519 0.874956 -0.078827 -1.451474 16.876267 8.803651 11.247765 -2.735344 -39.652269 -10.137211 0.673598 40.563540 2.381368 6.578276 2.491232 0.000000 0.000000 0.000000 -4.005297 0.037045 -40.850208 0.226627 -1.820909 47.548634 -9.607338 -21.773968 7.897121 0.000000 0.000000 0.000000 4.862131 -2.634066 20.330265 -3.402892 1.637766 -4.143968 -5.478019 11.422139 9.506861 9.125578 -6.921799 -1.366701 0.000000 0.000000 0.000000 4.228808 6.498234 -0.743316 -83.836958 -4.330201 -16.351845 -138.003394 -66.629645 118.335931 0.000000 0.000000 0.000000 -2.186553 -15.755639 -6.268335 81.147399 -14.227643 -9.805490 136.775405 77.353164 141.125455 0.000000 0.000000 0.000000 
-0.021391 0.871597 -0.079003 -0.921871 19.982273 8.954635 11.012846 -3.400076 -40.554073 -10.494638 0.305415 40.788106 1.672003 4.924496 1.921693 0.000000 0.000000 0.000000 -4.570599 -0.820239 -41.572929 0.135841 -2.633945 49.302420 -10.683508 -23.349755 9.344432 0.000000 0.000000 0.000000 4.434149 -2.838538 21.393787 -3.315828 1.632541 -4.570791 -5.431736 11.523396 10.235324 8.971831 -6.608872 -1.758013 0.000000 0.000000 0.000000 4.299144 7.980335 -1.098105 -83.129627 -4.955254 -16.365344 -140.472690 -62.405059 117.261452 0.000000 0.000000 0.000000 -2.728874 -16.117763 -6.514584 81.025339 -13.910585 -8.705549 146.718699 76.809071 153.806893 0.000000 0.000000 0.000000 
-0.025185 0.869913 -0.078939 -0.527247 22.947230 9.039042 10.836475 -4.019147 -41.248161 -10.712126 -0.087906 40.826607 0.890856 3.265199 1.815353 0.000000 0.000000 0.000000 -5.132893 -1.652415 -41.792466 0.211656 -3.524787 50.389160 -11.587420 -24.495930 10.673098 0.000000 0.000000 0.000000 4.282636 -3.109076 22.339919 -3.720705 1.833083 -5.308242 -4.837808 11.486212 11.391601 8.416371 -5.963290 -2.110627 0.000000 0.000000 0.000000 4.658123 8.636331 -1.129202 -82.421381 -6.554818 -15.634467 -144.001754 -59.611204 119.354277 0.000000 0.000000 0.000000 -4.565768 -16.172918 -6.658673 81.822000 -13.830323 -7.658784 159.440147 74.471561 169.860593 0.000000 0.000000 0.000000 
-0.029331 0.868713 -0.078575 -0.193950 25.498365 9.365851 11.073813 -4.491223 -41.970049 -11.307291 -0.208256 40.521186 0.202789 1.880155 1.917101 0.000000 0.000000 0.000000 -5.377935 -2.300225 -41.995730 0.013527 -4.044711 50.612520 -12.627668 -25.690195 12.394960 0.000000 0.000000 0.000000 3.320318 -3.157402 23.218507 -3.053105 1.578224 -5.076876 -4.929642 11.629626 11.382101 7.936863 -5.523365 -2.109635 0.000000 0.000000 0.000000 5.398976 9.805273 -1.100142 -82.425753 -7.677261 -15.490138 -146.480089 -56.976586 120.414238 0.000000 0.000000 0.000000 -5.974680 -15.720802 -6.620503 82.197934 -13.365038 -6.341697 170.685742 72.799969 -174.681962 0.000000 0.000000 0.000000 
